<mxfile host="app.diagrams.net" modified="2022-12-03T11:04:50.381Z" agent="5.0 (Windows NT 10.0; Win64; x64) AppleWebKit/537.36 (KHTML, like Gecko) Chrome/108.0.0.0 Safari/537.36" etag="7L1_Kuz8fRW_g7MToKAa" version="20.6.0" type="github">
  <diagram id="9HLhW9o5Pn7bnSsW2eLf" name="Page-1">
    <mxGraphModel dx="1038" dy="621" grid="1" gridSize="10" guides="1" tooltips="1" connect="1" arrows="1" fold="1" page="1" pageScale="1" pageWidth="850" pageHeight="1100" math="0" shadow="0">
      <root>
        <mxCell id="0" />
        <mxCell id="1" parent="0" />
        <mxCell id="Zq3z_X9t1yMjAa4x7kTp-1" style="edgeStyle=orthogonalEdgeStyle;rounded=0;orthogonalLoop=1;jettySize=auto;html=1;exitX=0.5;exitY=1;exitDx=0;exitDy=0;" edge="1" parent="1" source="5jKje8F0iwKBfb8MLztT-20" target="tW3wjYKGY_-DUdyRMUnM-6">
          <mxGeometry relative="1" as="geometry" />
        </mxCell>
        <mxCell id="5jKje8F0iwKBfb8MLztT-20" value="&lt;span style=&quot;font-size:11.0pt;line-height:&lt;br/&gt;107%;font-family:&amp;quot;Calibri&amp;quot;,sans-serif;mso-ascii-theme-font:minor-latin;&lt;br/&gt;mso-fareast-font-family:Calibri;mso-fareast-theme-font:minor-latin;mso-hansi-theme-font:&lt;br/&gt;minor-latin;mso-bidi-font-family:Arial;mso-bidi-theme-font:minor-bidi;&lt;br/&gt;mso-ansi-language:EN-US;mso-fareast-language:EN-US;mso-bidi-language:AR-SA&quot; lang=&quot;EN-US&quot;&gt;Designing&lt;br/&gt;functional architecture&lt;/span&gt;" style="rounded=0;whiteSpace=wrap;html=1;" parent="1" vertex="1">
          <mxGeometry x="350.5" y="100" width="150" height="40" as="geometry" />
        </mxCell>
        <mxCell id="YmFkH0KrsYM-fxtj9EKp-13" style="edgeStyle=orthogonalEdgeStyle;rounded=0;orthogonalLoop=1;jettySize=auto;html=1;exitX=0.5;exitY=1;exitDx=0;exitDy=0;entryX=0.5;entryY=0;entryDx=0;entryDy=0;" parent="1" source="tW3wjYKGY_-DUdyRMUnM-6" target="YmFkH0KrsYM-fxtj9EKp-3" edge="1">
          <mxGeometry relative="1" as="geometry" />
        </mxCell>
        <mxCell id="tW3wjYKGY_-DUdyRMUnM-6" value="Use case diagram" style="shape=parallelogram;perimeter=parallelogramPerimeter;whiteSpace=wrap;html=1;fixedSize=1;" parent="1" vertex="1">
          <mxGeometry x="343" y="160" width="165" height="40" as="geometry" />
        </mxCell>
        <mxCell id="YmFkH0KrsYM-fxtj9EKp-15" style="edgeStyle=orthogonalEdgeStyle;rounded=0;orthogonalLoop=1;jettySize=auto;html=1;exitX=0.5;exitY=1;exitDx=0;exitDy=0;entryX=0.5;entryY=0;entryDx=0;entryDy=0;" parent="1" source="tW3wjYKGY_-DUdyRMUnM-8" target="tW3wjYKGY_-DUdyRMUnM-9" edge="1">
          <mxGeometry relative="1" as="geometry" />
        </mxCell>
        <mxCell id="tW3wjYKGY_-DUdyRMUnM-8" value="BPMN to be" style="shape=parallelogram;perimeter=parallelogramPerimeter;whiteSpace=wrap;html=1;fixedSize=1;" parent="1" vertex="1">
          <mxGeometry x="343" y="280" width="165" height="40" as="geometry" />
        </mxCell>
        <mxCell id="YmFkH0KrsYM-fxtj9EKp-16" style="edgeStyle=orthogonalEdgeStyle;rounded=0;orthogonalLoop=1;jettySize=auto;html=1;exitX=0.5;exitY=1;exitDx=0;exitDy=0;entryX=0.5;entryY=0;entryDx=0;entryDy=0;" parent="1" source="tW3wjYKGY_-DUdyRMUnM-9" target="tW3wjYKGY_-DUdyRMUnM-10" edge="1">
          <mxGeometry relative="1" as="geometry" />
        </mxCell>
        <mxCell id="tW3wjYKGY_-DUdyRMUnM-9" value="Designing physical architecture" style="rounded=0;whiteSpace=wrap;html=1;" parent="1" vertex="1">
          <mxGeometry x="350" y="340" width="150" height="40" as="geometry" />
        </mxCell>
        <mxCell id="tW3wjYKGY_-DUdyRMUnM-10" value="Class diagram" style="shape=parallelogram;perimeter=parallelogramPerimeter;whiteSpace=wrap;html=1;fixedSize=1;" parent="1" vertex="1">
          <mxGeometry x="342.5" y="400" width="165" height="40" as="geometry" />
        </mxCell>
        <mxCell id="YmFkH0KrsYM-fxtj9EKp-14" style="edgeStyle=orthogonalEdgeStyle;rounded=0;orthogonalLoop=1;jettySize=auto;html=1;exitX=0.5;exitY=1;exitDx=0;exitDy=0;" parent="1" source="YmFkH0KrsYM-fxtj9EKp-3" target="tW3wjYKGY_-DUdyRMUnM-8" edge="1">
          <mxGeometry relative="1" as="geometry" />
        </mxCell>
        <mxCell id="YmFkH0KrsYM-fxtj9EKp-3" value="Designing logical architecture&amp;nbsp;" style="rounded=0;whiteSpace=wrap;html=1;" parent="1" vertex="1">
          <mxGeometry x="350" y="220" width="150" height="40" as="geometry" />
        </mxCell>
      </root>
    </mxGraphModel>
  </diagram>
</mxfile>
